<svg version="1.1" id="Layer_1" xmlns="http://www.w3.org/2000/svg" xmlns:xlink="http://www.w3.org/1999/xlink" x="0px" y="0px"
	 width="100%" viewBox="0 0 1008 1024" enable-background="new 0 0 1008 1024" xml:space="preserve">
<path fill="#000000" opacity="1.000000" stroke="none" 
	d="
M572.751099,794.635010 
	C556.642639,801.265320 539.896729,801.704224 523.307251,802.926331 
	C514.635376,803.565247 506.371552,807.444580 497.693237,806.862427 
	C471.347107,805.095215 445.108582,808.507385 418.817139,808.008362 
	C401.677551,807.683167 384.571838,806.361877 367.508270,804.509277 
	C359.741852,803.666016 351.890320,803.555603 344.071991,803.251221 
	C323.275482,802.441589 302.474274,801.709167 281.725922,800.015198 
	C268.228149,798.913147 255.140625,795.626526 242.100143,792.168030 
	C236.306015,790.631409 230.602982,788.684570 224.745865,787.465759 
	C211.542114,784.718201 200.187912,777.348206 187.621399,773.034485 
	C164.472595,765.088318 149.286133,748.008484 136.489761,728.220886 
	C133.653748,723.835449 131.488464,719.154724 130.711243,713.972412 
	C129.708786,707.288330 127.168747,701.126892 124.444710,695.051514 
	C117.337669,679.201111 112.618835,662.499268 106.874901,646.166443 
	C102.138580,632.698669 93.854012,622.702820 80.514091,617.214661 
	C74.378380,614.690369 68.502647,614.037476 61.714512,616.305298 
	C45.646786,621.673340 38.237591,618.610413 31.573711,604.650940 
	C25.552832,592.038513 19.716301,579.361389 13.323186,566.913574 
	C8.953776,558.406067 10.368999,548.870667 14.044860,540.199707 
	C17.933434,531.026917 22.711878,522.282715 29.915707,515.098938 
	C32.736553,512.285950 35.988659,511.275330 39.456608,512.742432 
	C46.931435,515.904602 54.213497,519.570618 60.002838,525.447754 
	C64.137497,529.645081 66.771622,529.895569 70.833565,525.644226 
	C73.847275,522.489990 77.032959,519.693604 80.978203,517.663147 
	C84.418045,515.892822 86.189362,512.498169 87.006294,508.846771 
	C88.897995,500.391418 92.026978,492.258698 93.400024,483.669830 
	C94.421516,477.280029 97.803291,471.727386 101.092117,466.472107 
	C104.632439,460.815002 107.379128,454.750244 110.994011,449.167969 
	C114.430183,443.861664 115.670929,437.819977 116.724602,431.721008 
	C118.822510,419.577545 120.897690,407.429962 123.053802,395.296783 
	C124.026993,389.820343 126.273941,384.650330 128.960144,379.963531 
	C136.845932,366.204742 143.082169,351.621948 150.684082,337.746307 
	C156.231110,327.621399 162.934464,318.368683 173.089005,312.084930 
	C177.363922,309.439545 181.773773,308.110565 186.717163,307.903503 
	C198.525650,307.408813 210.366211,308.913574 222.158554,307.160553 
	C230.851120,305.868347 238.906158,302.868073 246.615906,298.765961 
	C248.904709,297.548218 250.516968,295.807037 251.832962,293.571655 
	C254.701904,288.698517 257.389618,283.643677 261.521820,279.680298 
	C267.133301,274.298065 269.460632,267.091309 272.681183,260.364929 
	C274.412354,256.749207 273.591187,253.300964 272.438599,249.705750 
	C267.892426,235.525055 276.353516,220.336029 290.754089,216.594986 
	C299.666321,214.279739 308.351746,218.174271 312.695618,226.325317 
	C317.237000,234.847015 321.906311,243.300552 326.440582,251.825989 
	C329.604553,257.774963 335.510590,260.487000 340.649933,264.096130 
	C352.774200,272.610413 366.108795,278.175720 381.028534,278.388184 
	C396.350708,278.606415 411.743134,277.914520 426.329254,272.547394 
	C431.567596,270.619904 436.349518,267.343018 441.159271,264.388214 
	C446.785645,260.931732 452.941284,259.147034 459.224335,257.358032 
	C474.569794,252.988617 490.180115,249.494431 504.929382,243.101715 
	C514.047852,239.149551 523.026489,241.020798 532.041260,244.704300 
	C558.296143,255.432327 585.066528,261.327087 613.106873,251.486511 
	C619.498108,249.243561 626.256470,249.435944 632.872131,249.118210 
	C647.050842,248.437210 661.088440,249.105499 675.044678,252.569275 
	C686.812134,255.489822 699.293274,253.415497 711.153992,256.876221 
	C727.681519,261.698669 744.908447,262.602051 761.785095,265.440643 
	C777.078735,268.012939 790.737183,275.161621 801.965759,286.301422 
	C811.912903,296.169922 820.704468,307.072601 829.833557,317.660583 
	C837.256714,326.269958 845.544617,333.992645 853.549988,341.995483 
	C865.828918,354.270416 875.268921,368.441498 883.389038,383.673096 
	C887.216370,390.852448 891.731689,397.668457 896.009094,404.603607 
	C902.350281,414.885040 905.568542,426.190765 906.901917,438.068573 
	C907.996277,447.816864 908.750427,457.522522 911.540771,467.087341 
	C915.335022,480.093140 916.101746,493.646057 916.020996,507.173767 
	C915.914978,524.932922 918.259216,542.331604 922.345276,559.613220 
	C928.129395,584.077148 928.335510,608.549622 919.740845,632.496826 
	C916.831909,640.602051 912.742065,648.283447 909.188477,656.157043 
	C909.120667,656.307251 908.960754,656.427612 908.927551,656.580078 
	C906.271851,668.764832 896.145203,676.126831 890.105652,686.066650 
	C884.911621,694.614929 878.907715,702.146851 871.632019,708.790649 
	C857.648376,721.559814 841.628601,730.787598 823.151978,735.214050 
	C814.649292,737.251099 808.282043,742.427612 801.859985,747.702942 
	C794.842651,753.467224 786.883423,757.146729 778.484741,760.647766 
	C763.601379,766.851990 747.663147,768.584717 732.436646,773.252502 
	C718.558044,777.507019 703.877625,777.422668 689.296570,776.676941 
	C678.206970,776.109802 667.326904,772.632690 656.007141,774.779297 
	C651.016357,775.725708 646.364563,777.309631 641.774902,779.262817 
	C625.788025,786.066345 608.518127,787.377991 591.787109,790.985718 
	C585.605713,792.318604 579.359619,793.351501 572.751099,794.635010 
M631.499878,446.646942 
	C638.825989,446.712341 646.298767,445.862762 653.451721,447.009003 
	C678.209167,450.976379 695.984924,464.087891 705.703918,487.853333 
	C715.172668,511.006805 709.802429,540.415710 692.368652,558.371582 
	C686.912842,563.990723 680.444641,567.860168 673.739868,571.593140 
	C669.672852,573.857544 669.493042,575.759155 672.804688,578.229980 
	C689.066833,590.363220 705.415894,602.381226 721.588013,614.632935 
	C724.391602,616.756897 726.129456,616.128113 728.493896,614.222717 
	C744.595642,601.247070 756.769836,585.270020 765.112732,566.396912 
	C775.508301,542.880249 779.252014,518.250427 775.318298,492.875519 
	C772.130188,472.310028 764.972351,453.101898 752.330750,436.148132 
	C725.781677,400.542999 690.601257,381.238739 646.066895,380.497467 
	C610.424622,379.904205 574.764404,380.413391 539.112305,380.347107 
	C534.254883,380.338104 529.502136,381.080719 524.767395,381.834320 
	C500.172302,385.748962 478.369354,395.907440 459.640900,412.259247 
	C444.320465,425.635498 431.811340,441.235138 424.209991,460.394257 
	C422.909821,463.671356 423.296295,465.793091 426.394379,467.977478 
	C433.457031,472.957275 440.171021,478.428406 447.102631,483.598145 
	C456.309235,490.464661 465.588928,497.233246 474.835724,504.045959 
	C478.207825,506.530426 480.084869,505.335205 480.566437,501.530121 
	C481.032837,497.844910 482.617889,494.530426 483.661896,491.039948 
	C491.350586,465.334534 516.322266,446.663971 543.035339,446.647827 
	C572.190186,446.630219 601.345032,446.645416 631.499878,446.646942 
M417.500092,578.386353 
	C405.833984,578.385010 394.166962,578.477234 382.501984,578.361755 
	C361.718140,578.156006 343.953491,571.400513 330.259430,554.976868 
	C317.424744,539.583801 312.549042,521.944458 315.346771,502.491028 
	C318.249512,482.307312 328.718201,466.594757 346.369843,455.928009 
	C352.293610,452.348328 352.428650,450.312958 346.845001,446.069733 
	C332.923065,435.489868 318.891266,425.054718 304.954041,414.494873 
	C298.309723,409.460663 297.845703,409.338257 291.633057,415.105255 
	C275.618378,429.971008 263.732269,447.517395 256.326935,468.210114 
	C244.340195,501.704590 246.055115,534.694763 260.451508,566.790100 
	C271.154755,590.651917 287.869324,609.689392 310.232971,623.867859 
	C331.052429,637.067444 353.766479,644.188904 378.026947,644.408142 
	C416.817047,644.758850 455.644348,645.916199 494.424072,643.605469 
	C502.732056,643.110352 511.031128,641.487549 518.774170,638.836914 
	C541.573547,631.032166 561.966919,619.070923 577.939331,600.569153 
	C586.224426,590.971985 593.375977,580.585632 599.118042,569.221863 
	C601.534851,564.438965 600.609070,561.203735 596.272278,558.226990 
	C590.657532,554.373108 585.305664,550.136475 579.837280,546.069031 
	C570.090149,538.819031 560.292419,531.635742 550.620117,524.287170 
	C547.553772,521.957520 545.601929,522.050354 544.465027,525.981995 
	C543.956665,527.739807 543.328491,529.466187 542.889954,531.240234 
	C541.018066,538.812378 537.180969,545.479797 532.652466,551.622864 
	C519.260254,569.789734 500.836792,578.225037 478.497467,578.361938 
	C458.499023,578.484436 438.499298,578.387268 417.500092,578.386353 
z"/>
</svg>